# xmcd
#
# Track frame offsets:
#	150
#	38250
#	70326
#	145534
#	205883
#	234600
#	279132
#	318537
#
# Disc length: 4594 seconds
#
# Revision: 1
# Processed by: cddbd v1.5.2PL0 Copyright (c) Steve Scherf et al.
# Submitted via: audiograbber 1.83.01
#
DISCID=6711f008
DTITLE=Grateful Dead - 92-05-20 Cal Expo Amphitheatre, Sacrimento CA
DYEAR=1900
DGENRE=
TTITLE0=Crazy Fingers
TTITLE1=Saint Of Circumstance
TTITLE2=Drums
TTITLE3=Jam
TTITLE4=The Other One
TTITLE5=Wharf Rat
TTITLE6=Around and Around
TTITLE7=US Blues
EXTD=
EXTT0=
EXTT1=
EXTT2=
EXTT3=
EXTT4=
EXTT5=
EXTT6=
EXTT7=
PLAYORDER=
